<svg width="20" height="20" viewBox="0 0 20 20" fill="none" xmlns="http://www.w3.org/2000/svg">
<path d="M13.8782 9.24399C15.4159 7.03844 14.8348 4.01684 12.5853 2.5104C10.3346 1.00271 7.25403 1.57121 5.71629 3.778C4.27118 5.85169 4.69748 8.64439 6.62092 10.2242C3.51373 11.3749 1.45834 14.1129 1.45834 17.1693C1.45834 17.637 1.84658 18.0177 2.32364 18.0177C2.80069 18.0177 3.18893 17.637 3.18893 17.1693C3.18893 13.9636 6.15401 11.3562 9.79788 11.3562C11.4308 11.3562 12.9558 10.5663 13.8769 9.24399H13.8782ZM13.0116 6.51099C13.0116 7.35192 12.678 8.14308 12.0702 8.73769C11.4638 9.33231 10.6568 9.65947 9.79915 9.65947C8.02924 9.65947 6.58793 8.24633 6.58793 6.51099C6.58793 5.67007 6.92161 4.87891 7.52808 4.2843C8.13454 3.68968 8.94147 3.36127 9.80042 3.36127C10.6581 3.36127 11.465 3.68844 12.0715 4.2843C12.678 4.87891 13.0116 5.67007 13.0116 6.51099Z" fill="black" fill-opacity="0.7"/>
<path d="M14.6473 14.2939H14.646C14.2854 14.2939 13.9932 14.6031 13.9932 14.9845V15.8345C13.9932 16.216 14.2854 16.5252 14.646 16.5252H14.6473C15.0078 16.5252 15.3 16.216 15.3 15.8345V14.9845C15.3 14.6031 15.0078 14.2939 14.6473 14.2939Z" fill="black" fill-opacity="0.7"/>
<path d="M17.3609 12.4868H16.7401V12.274C16.7401 11.0209 15.7769 10.0003 14.5913 10.0003C13.4071 10.0003 12.4426 11.0194 12.4426 12.274V12.4868H11.8071C11.2703 12.4868 10.8333 12.9491 10.8333 13.5172V17.3033C10.8333 17.8713 11.2703 18.3337 11.8071 18.3337H17.3595C17.8964 18.3337 18.3333 17.8713 18.3333 17.3033V13.5172C18.3333 12.9491 17.8964 12.4868 17.3595 12.4868H17.3609ZM13.7494 12.274C13.7494 11.7834 14.1264 11.3831 14.5913 11.3831C15.0563 11.3831 15.4333 11.782 15.4333 12.274V12.4868H13.7494V12.274ZM17.0278 13.8696V16.9509H12.1415V13.8696H17.0278Z" fill="black" fill-opacity="0.7"/>
</svg>
