<svg width="18" height="16" viewBox="0 0 18 16" fill="none" xmlns="http://www.w3.org/2000/svg">
<path d="M15.6013 5.19033C15.7431 5.29524 15.8572 5.42224 15.9419 5.57133L16.656 6.81006C17.0886 6.37936 17.3334 5.7922 17.3334 5.18112V2.72208C17.3334 2.28033 16.9726 1.91957 16.5309 1.91957H14.6553V1.51832C14.6553 1.07658 14.2945 0.71582 13.8528 0.71582H4.14543C3.70368 0.71582 3.34292 1.07658 3.34292 1.51832V1.91957H1.46919C1.02745 1.91957 0.666687 2.28033 0.666687 2.72208V5.18112C0.666687 6.45482 1.69927 7.48372 2.96744 7.48372H3.45336L3.46809 7.55734C4.02211 10.1489 6.34863 12.03 8.9991 12.03H9.01567L7.94996 10.1839C7.94259 10.171 7.93523 10.1581 7.92971 10.1452C6.24556 9.66852 5.07309 8.12241 5.07309 6.37199V2.44599H12.9214V4.93264H14.6534V3.64974H15.5977V5.17928C15.5977 5.17928 15.5977 5.18665 15.5977 5.19033H15.6013ZM3.34292 5.74987H2.96928C2.64902 5.74987 2.39869 5.49955 2.39869 5.17928V3.64974H3.34292V5.74987Z" fill="black" fill-opacity="0.7"/>
<path d="M11.6164 13.6056H6.3836C5.92161 13.6056 5.54429 13.981 5.54429 14.4449C5.54429 14.9087 5.91977 15.2842 6.3836 15.2842H11.6164C12.0784 15.2842 12.4558 14.9087 12.4558 14.4449C12.4558 13.981 12.0803 13.6056 11.6164 13.6056Z" fill="black" fill-opacity="0.7"/>
<path d="M16.9099 8.73352L15.451 6.20635C15.2528 5.86285 14.8848 5.64958 14.4885 5.64958H11.5687C11.1724 5.64958 10.8043 5.86285 10.6062 6.20635L9.14723 8.73352C8.95095 9.07513 8.95095 9.50167 9.14723 9.84328L10.6062 12.3705C10.8043 12.714 11.1724 12.9272 11.5687 12.9272H14.4885C14.8848 12.9272 15.2528 12.714 15.451 12.3705L16.9118 9.8414C17.1081 9.49979 17.1081 9.07324 16.9118 8.73163L16.9099 8.73352ZM15.5812 9.2884L14.3035 11.5004H11.7499L10.4722 9.2884L11.7499 7.07642H14.3035L15.5812 9.2884Z" fill="black" fill-opacity="0.7"/>
<path d="M13.0295 8.38058C12.5294 8.38058 12.1217 8.78825 12.1217 9.2884C12.1217 9.78855 12.5294 10.1962 13.0295 10.1962C13.5297 10.1962 13.9373 9.78855 13.9373 9.2884C13.9373 8.78825 13.5297 8.38058 13.0295 8.38058Z" fill="black" fill-opacity="0.7"/>
</svg>
