<svg width="18" height="17" viewBox="0 0 18 17" fill="none" xmlns="http://www.w3.org/2000/svg">
<path fill-rule="evenodd" clip-rule="evenodd" d="M12.1967 9.51181C13.2986 8.59464 14 7.21273 14 5.66699C14 2.90557 11.7614 0.666992 8.99999 0.666992C6.23857 0.666992 3.99999 2.90557 3.99999 5.66699C3.99999 7.21273 4.70141 8.59464 5.80333 9.51181C2.86171 10.4886 0.666656 12.7817 0.666656 15.667C0.666656 16.1272 1.03975 16.5003 1.49999 16.5003C1.96023 16.5003 2.33332 16.1272 2.33332 15.667C2.33332 13.0883 5.11106 10.667 8.99999 10.667C12.8889 10.667 15.6667 13.0883 15.6667 15.667C15.6667 16.1272 16.0398 16.5003 16.5 16.5003C16.9602 16.5003 17.3333 16.1272 17.3333 15.667C17.3333 12.7817 15.1383 10.4886 12.1967 9.51181ZM5.66666 5.66699C5.66666 3.82604 7.15904 2.33366 8.99999 2.33366C10.8409 2.33366 12.3333 3.82604 12.3333 5.66699C12.3333 7.50794 10.8409 9.00033 8.99999 9.00033C7.15904 9.00033 5.66666 7.50794 5.66666 5.66699Z" fill="black" fill-opacity="0.7"/>
</svg>
