<svg width="17" height="18" viewBox="0 0 17 18" fill="none" xmlns="http://www.w3.org/2000/svg">
<path d="M16.0244 15.7582L15.8427 15.5765L14.5273 14.2698C14.9773 13.5689 15.2196 12.7468 15.2196 11.9247C15.2196 9.53636 13.2812 7.58931 10.8929 7.58931C8.5045 7.58931 6.54881 9.53636 6.54881 11.9334C6.54881 14.3304 8.49585 16.2688 10.8842 16.2688C11.715 16.2688 12.5197 16.0265 13.2293 15.5765L14.7177 17.0649C14.8908 17.2293 15.1244 17.3332 15.3667 17.3332C15.609 17.3332 15.8427 17.238 16.0157 17.0736C16.1975 16.9005 16.2927 16.6755 16.2927 16.4332C16.2927 16.1909 16.1975 15.94 16.0244 15.7669V15.7582ZM13.2639 11.8209V11.9247C13.2639 13.2314 12.1909 14.2958 10.8842 14.2958C9.57754 14.2958 8.51315 13.2314 8.51315 11.9247C8.51315 10.618 9.57754 9.55366 10.8929 9.55366C12.2082 9.55366 13.2034 10.5575 13.2639 11.8209Z" fill="black" fill-opacity="0.7"/>
<path d="M6.07286 14.6073V14.5814H2.22205V2.33663H12.987V6.89703C12.987 7.35567 13.3764 7.73642 13.8437 7.73642C14.311 7.73642 14.7004 7.36432 14.7004 6.89703V1.88665C14.7004 1.20302 14.0774 0.666504 13.2812 0.666504H1.79803C1.07979 0.666504 0.5 1.25494 0.5 1.98184V14.9275C0.5 15.6544 1.07979 16.2428 1.79803 16.2428H6.07286V16.2169C6.44496 16.1217 6.71322 15.7842 6.71322 15.4121C6.71322 15.04 6.44496 14.7025 6.07286 14.5987V14.6073Z" fill="black" fill-opacity="0.7"/>
<path d="M7.88145 7.50278C7.88145 7.04414 7.49204 6.66339 7.02475 6.66339H4.36812C3.89218 6.66339 3.51142 7.03549 3.51142 7.50278C3.51142 7.97007 3.90083 8.33352 4.36812 8.33352H7.02475C7.50069 8.33352 7.88145 7.96142 7.88145 7.50278Z" fill="black" fill-opacity="0.7"/>
<path d="M11.3515 4.60385C11.3515 4.14522 10.9621 3.76446 10.4948 3.76446H4.36812C3.89218 3.76446 3.51142 4.13656 3.51142 4.60385C3.51142 5.07114 3.90083 5.44324 4.36812 5.44324H10.4948C10.9707 5.44324 11.3515 5.07114 11.3515 4.60385Z" fill="black" fill-opacity="0.7"/>
<path d="M4.36812 9.56232C3.89218 9.56232 3.51142 9.93442 3.51142 10.4017C3.51142 10.869 3.90083 11.2411 4.36812 11.2411H5.13828C5.61423 11.2411 5.99498 10.869 5.99498 10.4017C5.99498 9.93442 5.60557 9.56232 5.13828 9.56232H4.36812Z" fill="black" fill-opacity="0.7"/>
</svg>
