<svg width="16" height="18" viewBox="0 0 16 18" fill="none" xmlns="http://www.w3.org/2000/svg">
<path d="M4.66667 10.6665C4.20643 10.6665 3.83333 11.0396 3.83333 11.4998V13.1665C3.83333 13.6267 4.20643 13.9998 4.66667 13.9998C5.1269 13.9998 5.5 13.6267 5.5 13.1665V11.4998C5.5 11.0396 5.1269 10.6665 4.66667 10.6665Z" fill="black" fill-opacity="0.7"/>
<path d="M7.16667 8.1665C7.16667 7.70627 7.53976 7.33317 8 7.33317C8.46024 7.33317 8.83333 7.70627 8.83333 8.1665V13.1665C8.83333 13.6267 8.46024 13.9998 8 13.9998C7.53976 13.9998 7.16667 13.6267 7.16667 13.1665V8.1665Z" fill="black" fill-opacity="0.7"/>
<path d="M11.3333 8.99984C10.8731 8.99984 10.5 9.37293 10.5 9.83317V13.1665C10.5 13.6267 10.8731 13.9998 11.3333 13.9998C11.7936 13.9998 12.1667 13.6267 12.1667 13.1665V9.83317C12.1667 9.37293 11.7936 8.99984 11.3333 8.99984Z" fill="black" fill-opacity="0.7"/>
<path fill-rule="evenodd" clip-rule="evenodd" d="M5.5 0.666504C4.57953 0.666504 3.83333 1.4127 3.83333 2.33317L2.16667 2.33317C1.24619 2.33317 0.5 3.07936 0.5 3.99984V15.6665C0.5 16.587 1.24619 17.3332 2.16667 17.3332H13.8333C14.7538 17.3332 15.5 16.587 15.5 15.6665V3.99984C15.5 3.07936 14.7538 2.33317 13.8333 2.33317H12.1667C12.1667 1.4127 11.4205 0.666504 10.5 0.666504H5.5ZM3.83333 3.99984C3.83333 4.92031 4.57953 5.6665 5.5 5.6665H10.5C11.4205 5.6665 12.1667 4.92031 12.1667 3.99984H13C13.4602 3.99984 13.8333 4.37293 13.8333 4.83317V14.8332C13.8333 15.2934 13.4602 15.6665 13 15.6665H3C2.53976 15.6665 2.16667 15.2934 2.16667 14.8332V4.83317C2.16667 4.37293 2.53976 3.99984 3 3.99984H3.83333ZM5.5 3.1665C5.5 2.70627 5.8731 2.33317 6.33333 2.33317H9.66667C10.1269 2.33317 10.5 2.70627 10.5 3.1665C10.5 3.62674 10.1269 3.99984 9.66667 3.99984H6.33333C5.8731 3.99984 5.5 3.62674 5.5 3.1665Z" fill="black" fill-opacity="0.7"/>
</svg>
