<svg width="137" height="23" viewBox="0 0 137 23" fill="none" xmlns="http://www.w3.org/2000/svg">
<path d="M0.37735 16.9422V0.688414L12.6004 0.642822C14.2112 0.642822 15.4023 1.02276 16.1739 1.78264C16.959 2.52732 17.3515 3.65194 17.3515 5.1565C17.3515 6.66106 16.9048 7.76288 16.0115 8.46197C16.607 8.82671 17.047 9.31304 17.3312 9.92094C17.6155 10.5136 17.7576 11.2811 17.7576 12.2234C17.7576 13.7583 17.3651 14.9285 16.58 15.734C15.8084 16.5243 14.6172 16.9194 13.0065 16.9194L0.37735 16.9422ZM12.2146 3.56076H3.626V7.20817H12.2146C13.4464 7.20817 14.0623 6.58507 14.0623 5.33887C14.0623 4.15346 13.4464 3.56076 12.2146 3.56076ZM12.6207 10.1261H3.626V14.0015H12.6207C13.8525 14.0015 14.4684 13.348 14.4684 12.041C14.4684 10.7644 13.8525 10.1261 12.6207 10.1261Z" fill="black"/>
<path d="M22.4645 16.9422C21.3681 16.9422 20.5288 16.6307 19.9468 16.0076C19.3647 15.3845 19.0737 14.4954 19.0737 13.3404C19.0737 12.2006 19.3647 11.3191 19.9468 10.696C20.5288 10.0729 21.3681 9.76136 22.4645 9.76136H30.2612V9.21425C30.2612 8.2872 29.8552 7.82367 29.043 7.82367H20.4341V5.20209H29.8146C31.0463 5.20209 31.9194 5.52124 32.4338 6.15954C32.9481 6.78264 33.2053 7.6641 33.2053 8.80392V16.9422H22.4645ZM22.9924 14.3206H30.2612V12.3829H22.9924C22.7352 12.3829 22.5322 12.4741 22.3833 12.6565C22.2479 12.8237 22.1802 13.0516 22.1802 13.3404C22.1802 13.6291 22.2479 13.8647 22.3833 14.0471C22.5322 14.2295 22.7352 14.3206 22.9924 14.3206Z" fill="black"/>
<path d="M40.8065 17.0562C38.9927 17.0562 37.5782 16.5547 36.563 15.5516C35.5477 14.5334 35.0401 13.044 35.0401 11.0836C35.0401 9.10787 35.5477 7.61851 36.563 6.61547C37.5782 5.59723 38.9927 5.08811 40.8065 5.08811H47.6083V7.70969H40.8065C39.9266 7.70969 39.2498 7.98325 38.7761 8.53036C38.3159 9.07747 38.0858 9.92854 38.0858 11.0836C38.0858 12.2234 38.3159 13.0668 38.7761 13.6139C39.2498 14.1611 39.9266 14.4346 40.8065 14.4346H47.8114V17.0562H40.8065Z" fill="black"/>
<path d="M49.3259 16.9422V0.642822H52.27V5.20209H59.2952C60.4864 5.20209 61.3933 5.52124 62.016 6.15954C62.6522 6.78264 62.9702 7.6793 62.9702 8.84951C62.9702 10.7644 62.1581 11.9042 60.5338 12.269L63.0109 16.9422H59.7013L57.3054 12.4057H52.27V16.9422H49.3259ZM59.1531 7.80088H52.27V9.80696H59.1531C59.4238 9.80696 59.6336 9.71577 59.7825 9.5334C59.9449 9.35103 60.0262 9.10027 60.0262 8.78112C60.0262 8.12763 59.7351 7.80088 59.1531 7.80088Z" fill="black"/>
<path d="M64.4864 17.0562V14.4346H74.4354C75.0039 14.4346 75.2881 14.0775 75.2881 13.3632C75.2881 12.6641 75.0039 12.3146 74.4354 12.3146H67.999C66.7943 12.3146 65.8806 12.0106 65.2579 11.4027C64.6353 10.7796 64.324 9.89054 64.324 8.73553C64.324 7.56532 64.6353 6.66866 65.2579 6.04556C65.8941 5.40726 66.8078 5.08811 67.999 5.08811H77.2576V7.70969H68.1411C67.5591 7.70969 67.268 8.02884 67.268 8.66714C67.268 8.98629 67.3493 9.23705 67.5117 9.41942C67.6741 9.60179 67.8839 9.69297 68.1411 9.69297H74.9633C76.0191 9.69297 76.8245 10.0045 77.3794 10.6276C77.948 11.2355 78.2322 12.1246 78.2322 13.2948C78.2322 14.4802 77.948 15.4073 77.3794 16.076C76.8109 16.7295 76.0055 17.0562 74.9633 17.0562H64.4864Z" fill="black"/>
<path d="M85.4019 16.9422C84.2243 16.9422 83.358 16.6155 82.803 15.962C82.248 15.2933 81.9705 14.4194 81.9705 13.3404V7.82367H78.9452V5.20209H81.9705V1.60027H84.9146V5.20209H89.2597V7.82367H84.9146V12.9301C84.9146 13.8571 85.3207 14.3206 86.1329 14.3206H89.8282V16.9422H85.4019Z" fill="black"/>
<path d="M94.1235 16.9422C93.027 16.9422 92.1878 16.6307 91.6058 16.0076C91.0237 15.3845 90.7327 14.4954 90.7327 13.3404C90.7327 12.2006 91.0237 11.3191 91.6058 10.696C92.1878 10.0729 93.027 9.76136 94.1235 9.76136H101.92V9.21425C101.92 8.2872 101.514 7.82367 100.702 7.82367H92.0931V5.20209H101.474C102.705 5.20209 103.578 5.52124 104.093 6.15954C104.607 6.78264 104.864 7.6641 104.864 8.80392V16.9422H94.1235ZM94.6514 14.3206H101.92V12.3829H94.6514C94.3942 12.3829 94.1911 12.4741 94.0422 12.6565C93.9069 12.8237 93.8392 13.0516 93.8392 13.3404C93.8392 13.6291 93.9069 13.8647 94.0422 14.0471C94.1911 14.2295 94.3942 14.3206 94.6514 14.3206Z" fill="black"/>
<path d="M109.582 22.0714V19.4498H115.714C116.526 19.4498 116.932 18.9863 116.932 18.0592V16.9422H112.465C110.652 16.9422 109.237 16.4407 108.222 15.4377C107.207 14.4346 106.699 12.9832 106.699 11.0836C106.699 9.16866 107.207 7.70969 108.222 6.70665C109.237 5.70361 110.652 5.20209 112.465 5.20209H119.876V18.4696C119.876 19.5486 119.599 20.4149 119.044 21.0684C118.489 21.737 117.623 22.0714 116.445 22.0714H109.582ZM112.465 14.3206H116.932V7.82367H112.465C111.586 7.82367 110.909 8.09723 110.435 8.64434C109.975 9.17626 109.745 9.98933 109.745 11.0836C109.745 12.1626 109.975 12.9756 110.435 13.5228C110.909 14.0547 111.586 14.3206 112.465 14.3206Z" fill="black"/>
<path d="M127.475 17.0562C125.662 17.0562 124.247 16.5547 123.232 15.5516C122.217 14.5334 121.709 13.044 121.709 11.0836C121.709 9.10787 122.217 7.61851 123.232 6.61547C124.247 5.59723 125.662 5.08811 127.475 5.08811H132.551C133.743 5.08811 134.649 5.40726 135.272 6.04556C135.908 6.66866 136.226 7.56532 136.226 8.73553C136.226 11.1215 135.001 12.3146 132.551 12.3146H124.876C125.161 13.7279 126.027 14.4346 127.475 14.4346H135.699V17.0562H127.475ZM127.475 7.70969C126.081 7.70969 125.222 8.37079 124.897 9.69297H132.409C132.68 9.69297 132.89 9.60179 133.039 9.41942C133.201 9.23705 133.282 8.98629 133.282 8.66714C133.282 8.02884 132.991 7.70969 132.409 7.70969H127.475Z" fill="black"/>
</svg>
