<svg width="53" height="50" viewBox="0 0 53 50" fill="none" xmlns="http://www.w3.org/2000/svg">
<path fill-rule="evenodd" clip-rule="evenodd" d="M15.4788 18.5842C9.34896 18.6532 4.40253 23.3275 4.40253 29.0834C4.40253 34.8824 9.42318 39.5834 15.6165 39.5834C18.5329 39.5834 20.8993 38.2475 22.5109 37.337L22.6775 37.2429L22.8264 37.1258C22.9519 37.0271 23.0511 36.9354 23.126 36.8619C23.1615 36.827 23.1916 36.7963 23.2114 36.7758C23.243 36.7433 23.234 36.7524 23.2509 36.7351C23.2626 36.7231 23.2476 36.7391 23.2211 36.7625C23.1925 36.7879 23.1633 36.8108 23.1372 36.8292L20.1403 33.1005C20.0104 33.192 19.8965 33.2833 19.7944 33.3738C19.7459 33.4168 19.7027 33.4573 19.6658 33.4931C18.0907 34.3714 16.8978 34.9167 15.6165 34.9167C12.1758 34.9167 9.38651 32.3051 9.38651 29.0834C9.38651 25.8618 12.1758 23.2501 15.6165 23.2501C18.9321 23.2501 21.1494 25.6159 23.0005 28.6774C24.8127 31.6745 26.7703 34.3497 29.0186 36.293C31.3054 38.2694 34.0099 39.5834 37.2137 39.5834C43.407 39.5834 48.4277 34.8824 48.4277 29.0834C48.4277 23.3275 43.4812 18.6532 37.3514 18.5842C36.2185 13.9078 31.7522 10.4167 26.4151 10.4167C21.078 10.4167 16.6117 13.9078 15.4788 18.5842ZM20.3524 19.5684C23.794 21.1015 25.9704 24.117 27.3377 26.3783C29.0558 29.2198 30.7121 31.4057 32.3992 32.8639C34.0479 34.2889 35.6006 34.9167 37.2137 34.9167C40.6544 34.9167 43.4437 32.3051 43.4437 29.0834C43.4437 25.8618 40.6544 23.2501 37.2137 23.2501L32.6451 23.25V20.9167C32.6451 17.6951 29.8558 15.0834 26.4151 15.0834C23.47 15.0834 21.0022 16.9968 20.3524 19.5684Z" fill="url(#paint0_diamond_223_199)"/>
<path d="M20.3513 19.5556C19.5621 19.1667 17.0701 18.5834 15.4088 18.5834L15.9903 17.0279L21.0158 18.0001C20.8081 18.389 20.5589 18.7779 20.3513 19.5556Z" fill="url(#paint1_linear_223_199)"/>
<defs>
<radialGradient id="paint0_diamond_223_199" cx="0" cy="0" r="1" gradientUnits="userSpaceOnUse" gradientTransform="translate(11.8785 18.1945) rotate(29.8055) scale(45.3595 50.2038)">
<stop stop-color="#2FE0F4"/>
<stop offset="1" stop-color="#4547F3"/>
</radialGradient>
<linearGradient id="paint1_linear_223_199" x1="17.9008" y1="18.9723" x2="18.2676" y2="17.4054" gradientUnits="userSpaceOnUse">
<stop stop-color="#1C97CC" stop-opacity="0.71"/>
<stop offset="0.732669" stop-color="#1C97CC" stop-opacity="0"/>
</linearGradient>
</defs>
</svg>
